<?xml version="1.0" encoding="UTF-8" standalone="no"?>
<!DOCTYPE svg PUBLIC "-//W3C//DTD SVG 1.1//EN"
 "http://www.w3.org/Graphics/SVG/1.1/DTD/svg11.dtd">
<!-- Generated by graphviz version 2.26.3 (20100126.1600)
 -->
<!-- Title: controllers_diagram Pages: 1 -->
<svg width="572pt" height="271pt"
 viewBox="0.00 0.00 572.00 271.00" xmlns="http://www.w3.org/2000/svg" xmlns:xlink="http://www.w3.org/1999/xlink">
<g id="graph1" class="graph" transform="scale(1 1) rotate(0) translate(4 267)">
<title>controllers_diagram</title>
<polygon fill="white" stroke="white" points="-4,5 -4,-267 569,-267 569,5 -4,5"/>
<!-- _diagram_info -->
<g id="node1" class="node"><title>_diagram_info</title>
<text text-anchor="start" x="321" y="-246.3" font-family="Times Roman,serif" font-size="13.00">Controllers diagram</text>
<text text-anchor="start" x="321" y="-229.3" font-family="Times Roman,serif" font-size="13.00">Date: Jul 20 2013 &#45; 12:18</text>
<text text-anchor="start" x="321" y="-212.3" font-family="Times Roman,serif" font-size="13.00">Migration version: 20130720010418</text>
<text text-anchor="start" x="321" y="-195.3" font-family="Times Roman,serif" font-size="13.00">Generated by RailRoady 1.1.0</text>
<text text-anchor="start" x="321" y="-178.3" font-family="Times Roman,serif" font-size="13.00">http://railroady.prestonlee.com</text>
</g>
<!-- RepositoriesController -->
<g id="node2" class="node"><title>RepositoriesController</title>
<polyline fill="none" stroke="black" points="13,-1.5 158,-1.5 "/>
<path fill="none" stroke="black" d="M158,-1.5C164,-1.5 170,-7.5 170,-13.5"/>
<polyline fill="none" stroke="black" points="170,-13.5 170,-109.5 "/>
<path fill="none" stroke="black" d="M170,-109.5C170,-115.5 164,-121.5 158,-121.5"/>
<polyline fill="none" stroke="black" points="158,-121.5 13,-121.5 "/>
<path fill="none" stroke="black" d="M13,-121.5C7,-121.5 1,-115.5 1,-109.5"/>
<polyline fill="none" stroke="black" points="1,-109.5 1,-13.5 "/>
<path fill="none" stroke="black" d="M1,-13.5C1,-7.5 7,-1.5 13,-1.5"/>
<text text-anchor="middle" x="85.5" y="-104.9" font-family="Times Roman,serif" font-size="14.00">RepositoriesController</text>
<polyline fill="none" stroke="black" points="1,-95.5 170,-95.5 "/>
<text text-anchor="start" x="9" y="-78.9" font-family="Times Roman,serif" font-size="14.00">create</text>
<text text-anchor="start" x="9" y="-60.9" font-family="Times Roman,serif" font-size="14.00">show</text>
<polyline fill="none" stroke="black" points="1,-51.5 170,-51.5 "/>
<polyline fill="none" stroke="black" points="1,-27.5 170,-27.5 "/>
<text text-anchor="start" x="9" y="-10.9" font-family="Times Roman,serif" font-size="14.00">_layout</text>
</g>
<!-- ApplicationController -->
<g id="node3" class="node"><title>ApplicationController</title>
<polyline fill="none" stroke="black" points="205.751,-10.4981 419.751,-10.4981 "/>
<path fill="none" stroke="black" d="M419.751,-10.4981C425.751,-10.4981 431.751,-16.4981 431.751,-22.4981"/>
<polyline fill="none" stroke="black" points="431.751,-22.4981 431.751,-100.498 "/>
<path fill="none" stroke="black" d="M431.751,-100.498C431.751,-106.498 425.751,-112.498 419.751,-112.498"/>
<polyline fill="none" stroke="black" points="419.751,-112.498 205.751,-112.498 "/>
<path fill="none" stroke="black" d="M205.751,-112.498C199.751,-112.498 193.751,-106.498 193.751,-100.498"/>
<polyline fill="none" stroke="black" points="193.751,-100.498 193.751,-22.4981 "/>
<path fill="none" stroke="black" d="M193.751,-22.4981C193.751,-16.4981 199.751,-10.4981 205.751,-10.4981"/>
<text text-anchor="middle" x="312.751" y="-95.8981" font-family="Times Roman,serif" font-size="14.00">ApplicationController</text>
<polyline fill="none" stroke="black" points="193.751,-86.4981 431.751,-86.4981 "/>
<text text-anchor="start" x="201.751" y="-69.8981" font-family="Times Roman,serif" font-size="14.00">_one_time_conditions_valid_14?</text>
<polyline fill="none" stroke="black" points="193.751,-60.4981 431.751,-60.4981 "/>
<polyline fill="none" stroke="black" points="193.751,-36.4981 431.751,-36.4981 "/>
<text text-anchor="start" x="201.751" y="-19.8981" font-family="Times Roman,serif" font-size="14.00">_layout</text>
</g>
<!-- ApplicationController&#45;&gt;RepositoriesController -->
<g id="edge2" class="edge"><title>ApplicationController&#45;&gt;RepositoriesController</title>
<path fill="none" stroke="black" d="M193.468,-61.4991C185.646,-61.4992 177.859,-61.4992 170.257,-61.4993"/>
</g>
</g>
</svg>
