<?xml version="1.0" encoding="UTF-8" standalone="no"?>
<!DOCTYPE svg PUBLIC "-//W3C//DTD SVG 1.1//EN"
 "http://www.w3.org/Graphics/SVG/1.1/DTD/svg11.dtd">
<!-- Generated by graphviz version 2.26.3 (20100126.1600)
 -->
<!-- Title: models_diagram Pages: 1 -->
<svg width="440pt" height="188pt"
 viewBox="0.00 0.00 440.00 188.00" xmlns="http://www.w3.org/2000/svg" xmlns:xlink="http://www.w3.org/1999/xlink">
<g id="graph1" class="graph" transform="scale(1 1) rotate(0) translate(4 184)">
<title>models_diagram</title>
<polygon fill="white" stroke="white" points="-4,5 -4,-184 437,-184 437,5 -4,5"/>
<!-- _diagram_info -->
<g id="node1" class="node"><title>_diagram_info</title>
<text text-anchor="start" x="8" y="-120.8" font-family="Times Roman,serif" font-size="13.00">Models diagram</text>
<text text-anchor="start" x="8" y="-103.8" font-family="Times Roman,serif" font-size="13.00">Date: Jul 20 2013 &#45; 12:18</text>
<text text-anchor="start" x="8" y="-86.8" font-family="Times Roman,serif" font-size="13.00">Migration version: 20130720010418</text>
<text text-anchor="start" x="8" y="-69.8" font-family="Times Roman,serif" font-size="13.00">Generated by RailRoady 1.1.0</text>
<text text-anchor="start" x="8" y="-52.8" font-family="Times Roman,serif" font-size="13.00">http://railroady.prestonlee.com</text>
</g>
<!-- Repository -->
<g id="node2" class="node"><title>Repository</title>
<polyline fill="none" stroke="black" points="279.5,-1 420.5,-1 "/>
<path fill="none" stroke="black" d="M420.5,-1C426.5,-1 432.5,-7 432.5,-13"/>
<polyline fill="none" stroke="black" points="432.5,-13 432.5,-167 "/>
<path fill="none" stroke="black" d="M432.5,-167C432.5,-173 426.5,-179 420.5,-179"/>
<polyline fill="none" stroke="black" points="420.5,-179 279.5,-179 "/>
<path fill="none" stroke="black" d="M279.5,-179C273.5,-179 267.5,-173 267.5,-167"/>
<polyline fill="none" stroke="black" points="267.5,-167 267.5,-13 "/>
<path fill="none" stroke="black" d="M267.5,-13C267.5,-7 273.5,-1 279.5,-1"/>
<text text-anchor="middle" x="350" y="-162.4" font-family="Times Roman,serif" font-size="14.00">Repository</text>
<polyline fill="none" stroke="black" points="267.5,-153 432.5,-153 "/>
<text text-anchor="start" x="275.5" y="-136.4" font-family="Times Roman,serif" font-size="14.00">id :integer</text>
<text text-anchor="start" x="275.5" y="-118.4" font-family="Times Roman,serif" font-size="14.00">url :string</text>
<text text-anchor="start" x="275.5" y="-100.4" font-family="Times Roman,serif" font-size="14.00">repo_url :string</text>
<text text-anchor="start" x="275.5" y="-82.4" font-family="Times Roman,serif" font-size="14.00">provider :string</text>
<text text-anchor="start" x="275.5" y="-64.4" font-family="Times Roman,serif" font-size="14.00">status :string</text>
<text text-anchor="start" x="275.5" y="-46.4" font-family="Times Roman,serif" font-size="14.00">data :text</text>
<text text-anchor="start" x="275.5" y="-28.4" font-family="Times Roman,serif" font-size="14.00">created_at :datetime</text>
<text text-anchor="start" x="275.5" y="-10.4" font-family="Times Roman,serif" font-size="14.00">updated_at :datetime</text>
</g>
</g>
</svg>
